<svg width="24" height="24" viewBox="0 0 24 24" fill="none" xmlns="http://www.w3.org/2000/svg">
<path d="M22.47 12.27C22.47 11.46 22.4 10.71 22.27 10H12V14.3H18.18C17.89 15.82 17 17.05 15.74 17.88V20.73H19.47C21.6 18.78 22.47 15.82 22.47 12.27Z" fill="#4285F4"/>
<path d="M12 23C15.24 23 17.91 21.9 19.88 19.88L16.05 17.03C15 17.72 13.6 18.18 12 18.18C9.09 18.18 6.65 16.22 5.78 13.5H1.95V16.35C3.88 20.09 7.71 23 12 23Z" fill="#34A853"/>
<path d="M5.78 13.5C5.56 12.81 5.44 12.07 5.44 11.31C5.44 10.55 5.56 9.81 5.78 9.12V6.27H1.95C1.22 7.71 0.8 9.42 0.8 11.31C0.8 13.2 1.22 14.91 1.95 16.35L5.78 13.5Z" fill="#FBBC04"/>
<path d="M12 5.44C13.64 5.44 14.99 6.02 16.05 6.98L19.55 3.48C17.91 1.84 15.24 0.8 12 0.8C7.71 0.8 3.88 3.71 1.95 7.45L5.78 10.3C6.65 7.58 9.09 5.44 12 5.44Z" fill="#EA4335"/>
</svg>